<?xml version="1.0" standalone="no"?>
<!DOCTYPE svg PUBLIC "-//W3C//DTD SVG 20010904//EN"
 "http://www.w3.org/TR/2001/REC-SVG-20010904/DTD/svg10.dtd">
<svg version="1.0" xmlns="http://www.w3.org/2000/svg"
 width="1051.000000pt" height="1051.000000pt" viewBox="0 0 1051.000000 1051.000000"
 preserveAspectRatio="xMidYMid meet">
<metadata>
Created by potrace 1.11, written by Peter Selinger 2001-2013
</metadata>
<g transform="translate(0.000000,1051.000000) scale(0.100000,-0.100000)"
fill="#000000" stroke="none">
<path d="M2628 10503 c1449 -2 3816 -2 5260 0 1445 1 260 2 -2633 2 -2893 0
-4075 -1 -2627 -2z"/>
<path d="M5810 9870 c-19 -3 -82 -29 -140 -57 -58 -27 -125 -55 -150 -62 -25
-7 -53 -17 -62 -22 -10 -5 -26 -9 -36 -9 -10 0 -22 -3 -26 -7 -3 -4 -14 -8
-24 -9 -17 -3 -29 -6 -162 -40 -36 -9 -96 -22 -134 -30 -67 -14 -121 -30 -181
-54 -16 -7 -39 -16 -50 -21 -11 -4 -69 -24 -130 -44 -132 -44 -145 -51 -145
-73 0 -19 -18 -42 -33 -42 -5 0 -7 6 -4 13 7 20 -59 19 -98 -2 -19 -10 -32
-21 -28 -25 3 -3 1 -6 -6 -6 -6 0 -31 -9 -53 -20 -23 -11 -48 -20 -55 -20 -7
0 -13 -4 -13 -10 0 -5 -9 -10 -20 -10 -11 0 -20 -4 -20 -10 0 -5 -7 -10 -15
-10 -8 0 -51 -25 -95 -55 -44 -30 -85 -55 -90 -55 -4 0 -10 -4 -12 -9 -3 -7
-171 -91 -184 -91 -3 0 -66 -29 -140 -65 -74 -36 -139 -65 -144 -65 -6 0 -10
-4 -10 -10 0 -5 -6 -10 -13 -10 -7 0 -29 -14 -50 -31 -20 -17 -41 -27 -47 -24
-5 3 -10 -1 -10 -9 0 -10 -6 -13 -17 -9 -11 4 -14 3 -9 -5 9 -15 -23 -46 -74
-72 -22 -11 -40 -27 -40 -35 0 -8 -3 -15 -8 -15 -4 0 -25 -18 -47 -40 -29 -28
-49 -39 -71 -40 -16 0 -39 -8 -50 -18 -11 -11 -40 -22 -64 -25 -25 -4 -72 -11
-105 -17 -33 -5 -78 -12 -100 -15 -22 -4 -53 -10 -70 -14 -16 -5 -43 -9 -59
-10 -16 0 -77 -17 -135 -36 -155 -52 -166 -55 -185 -55 -9 0 -41 -10 -69 -23
-137 -62 -161 -72 -171 -72 -8 0 -11 -106 -11 -350 0 -349 0 -350 28 -465 38
-156 56 -243 67 -320 4 -36 13 -78 19 -95 5 -16 20 -59 32 -95 12 -36 28 -81
37 -100 8 -19 15 -41 15 -47 0 -7 4 -13 9 -13 4 0 8 -5 8 -11 0 -6 8 -22 19
-35 10 -13 31 -63 46 -111 15 -48 31 -96 36 -105 5 -10 9 -33 9 -52 0 -67 117
-383 157 -424 7 -7 13 -18 13 -24 0 -5 6 -24 14 -41 24 -54 35 -97 30 -111 -3
-8 4 -20 15 -28 11 -8 19 -20 18 -28 -3 -40 19 -122 51 -185 19 -38 38 -81 43
-95 21 -64 48 -134 48 -127 2 17 30 -21 50 -69 12 -27 26 -58 32 -69 5 -11 8
-33 7 -50 -2 -28 55 -214 92 -300 50 -115 86 -184 96 -185 6 0 21 -24 33 -52
12 -29 26 -62 31 -73 5 -11 11 -29 12 -40 2 -11 9 -26 16 -34 8 -8 11 -24 8
-37 -4 -14 1 -36 14 -56 11 -18 20 -42 20 -53 0 -22 27 -104 40 -120 4 -5 11
-21 15 -35 4 -14 18 -47 31 -73 12 -26 26 -61 29 -77 4 -17 12 -30 19 -30 19
0 55 -78 112 -240 31 -89 32 -96 16 -108 -16 -12 -16 -14 0 -23 9 -5 19 -28
23 -52 4 -23 36 -100 72 -172 36 -71 74 -150 86 -174 12 -24 30 -46 39 -48 10
-3 20 -19 24 -39 3 -19 9 -34 13 -34 4 0 15 -19 25 -42 10 -24 25 -56 33 -73
30 -62 40 -100 32 -123 -6 -16 -1 -40 18 -85 15 -34 31 -68 36 -74 6 -9 5 -19
-4 -30 -12 -15 -12 -16 4 -10 11 4 17 2 17 -7 0 -8 3 -16 8 -18 7 -3 31 -46
74 -130 11 -24 26 -38 37 -38 15 0 51 -51 51 -73 0 -2 24 -44 53 -93 37 -62
54 -100 54 -126 1 -35 24 -87 51 -117 8 -8 11 -24 7 -40 -5 -20 -4 -23 6 -14
11 11 49 -35 107 -129 9 -16 26 -28 37 -28 14 0 28 -17 50 -62 17 -33 35 -66
40 -72 18 -18 57 -86 50 -86 -8 0 36 -77 78 -137 19 -27 42 -64 51 -81 9 -17
34 -50 56 -72 22 -22 40 -45 40 -49 0 -5 17 -11 38 -15 49 -8 163 -115 155
-146 -5 -18 14 -49 67 -107 11 -12 25 -34 32 -48 6 -14 16 -25 22 -25 6 0 24
-14 39 -30 16 -16 35 -30 43 -30 8 0 14 -4 14 -10 0 -5 12 -13 28 -16 15 -4
38 -19 52 -33 14 -14 47 -43 72 -64 30 -25 44 -44 41 -55 -4 -18 43 -69 88
-92 13 -8 54 -35 91 -62 73 -53 138 -74 138 -44 0 12 6 16 18 12 9 -2 58 -10
107 -16 55 -8 93 -18 98 -26 4 -8 15 -14 23 -14 8 0 12 -4 9 -10 -4 -6 17 -10
57 -10 35 0 106 -5 157 -10 66 -7 105 -7 127 0 22 8 57 8 113 1 87 -11 119
-28 98 -52 -10 -11 -9 -11 5 0 9 7 22 10 28 6 6 -4 78 -10 161 -15 122 -7 155
-6 177 6 41 21 176 19 198 -3 14 -14 36 -17 134 -17 112 1 175 13 191 37 13
18 217 11 232 -8 4 -6 10 -5 16 4 9 15 64 27 171 39 53 6 67 11 74 28 9 21 32
29 148 56 38 8 50 17 60 39 7 16 15 29 18 29 3 0 19 26 35 58 17 31 34 60 38
63 5 3 8 8 7 10 -2 6 18 61 30 81 6 10 10 23 10 29 0 6 6 25 14 42 51 121 72
252 42 269 -9 5 -14 24 -14 51 0 73 -53 188 -92 201 -23 8 -96 53 -167 102
-35 24 -67 44 -71 44 -5 0 -17 9 -26 19 -17 18 -96 34 -96 19 0 -18 -77 6
-120 38 -8 7 -26 15 -40 19 -14 4 -49 23 -78 41 -29 19 -57 34 -62 34 -6 0
-10 5 -10 10 0 6 -9 10 -21 10 -11 0 -17 5 -14 10 3 6 -3 10 -14 10 -11 0 -22
4 -25 9 -7 10 -169 91 -184 91 -6 0 -12 4 -14 8 -4 10 -216 87 -298 108 -30 8
-64 19 -75 25 -11 5 -52 19 -92 32 -40 12 -83 32 -97 44 -14 13 -44 34 -66 48
-37 23 -41 29 -35 55 5 23 1 35 -19 56 -14 15 -22 32 -19 37 3 6 1 7 -5 3 -7
-4 -17 -4 -23 0 -8 4 -7 9 2 14 7 5 14 19 16 31 2 13 7 26 12 29 39 24 59 277
28 352 -13 30 -13 40 -2 61 7 14 18 41 24 60 8 23 22 39 41 47 24 10 30 20 36
57 3 24 13 51 21 59 20 20 28 86 14 125 -10 28 -8 35 8 53 10 12 21 29 23 39
1 10 6 17 9 15 17 -9 69 79 69 119 0 13 -7 38 -16 55 -16 31 -9 47 23 48 6 0
15 9 18 20 4 11 11 18 16 14 5 -3 9 -2 7 3 -1 4 3 31 10 59 7 34 8 63 2 84
-10 35 -6 52 13 49 26 -4 47 15 53 47 3 19 9 34 13 34 13 0 2 133 -14 156 -15
24 -15 26 26 64 l41 38 -12 102 c-6 57 -8 131 -4 169 6 57 11 71 40 100 31 32
46 81 25 81 -5 0 -11 10 -15 23 -3 13 -17 29 -31 37 -27 14 -22 29 11 34 14 2
21 15 28 49 4 26 12 47 17 47 5 0 9 -5 9 -12 0 -6 3 -8 6 -5 4 4 1 13 -6 22
-7 9 -10 18 -7 21 3 3 1 18 -4 32 -5 14 -6 28 -1 31 12 8 62 112 62 128 0 7 6
13 14 13 21 0 25 33 10 76 -18 53 -17 94 3 109 28 21 18 197 -13 209 -21 8
-17 33 6 39 15 4 20 14 20 41 0 20 9 63 21 95 16 48 18 64 9 82 -16 30 -7 109
14 121 32 18 75 67 80 90 3 13 12 54 20 92 15 68 10 100 -16 117 -7 5 32 92
51 112 10 10 69 -21 84 -44 6 -10 15 -19 20 -19 15 0 77 -47 70 -53 -3 -4 -2
-7 4 -7 23 0 203 -174 203 -196 0 -8 5 -14 11 -14 5 0 8 -4 5 -8 -3 -5 2 -18
12 -28 9 -10 28 -44 41 -74 13 -30 29 -66 35 -79 8 -19 8 -25 -1 -28 -7 -3
-13 -9 -13 -15 0 -6 6 -8 14 -5 10 4 16 -5 21 -31 11 -62 14 -134 5 -151 -5
-9 -18 -56 -30 -106 -21 -88 -33 -119 -101 -260 -41 -84 -119 -219 -131 -223
-4 -2 -8 -9 -8 -16 0 -7 -13 -30 -30 -52 -16 -21 -30 -45 -30 -52 0 -7 -10
-29 -23 -50 -12 -20 -29 -49 -36 -65 -8 -15 -18 -27 -23 -27 -4 0 -8 -8 -8
-19 0 -10 -13 -42 -29 -72 -75 -139 -86 -156 -101 -152 -11 3 -12 2 -2 -4 10
-7 8 -22 -8 -69 -34 -99 -26 -228 22 -322 10 -18 8 -24 -6 -35 -17 -13 -17
-15 -2 -45 34 -66 25 -225 -19 -317 -62 -132 -35 -214 57 -175 70 29 85 88
103 415 3 68 24 125 59 164 21 23 33 91 46 247 10 131 13 141 79 299 30 73 52
107 66 102 8 -4 11 0 8 12 -2 9 11 37 30 61 19 25 39 55 46 68 7 12 16 20 21
17 6 -3 7 1 4 10 -4 9 15 48 49 98 72 108 127 232 127 285 0 10 5 23 11 29 7
7 13 66 16 145 5 122 1 163 -26 318 -8 47 -27 113 -42 142 -5 10 -9 23 -9 28
0 34 -78 164 -171 285 -43 56 -39 52 -92 97 -21 18 -66 60 -101 93 -34 33 -79
73 -100 89 -34 27 -37 33 -31 63 6 35 32 82 107 195 25 38 57 104 72 150 14
46 31 97 37 113 6 17 13 41 16 55 8 37 9 43 17 62 8 19 3 81 -9 111 -4 9 -13
17 -21 17 -7 0 -18 8 -23 18 -6 9 -11 14 -11 11 0 -4 -28 0 -62 7 -113 24
-282 11 -295 -22 -3 -8 -9 -14 -14 -14 -11 0 -59 -42 -112 -97 -30 -32 -46
-42 -64 -39 -13 3 -21 1 -18 -5 4 -5 10 -7 15 -4 5 3 11 1 15 -4 3 -6 -28 -45
-70 -88 -42 -43 -86 -91 -99 -108 -13 -16 -46 -53 -73 -81 l-50 -52 -18 35
c-10 18 -31 47 -47 63 -15 17 -28 32 -28 36 0 3 -26 31 -57 63 -32 31 -74 75
-93 97 -19 22 -51 51 -70 64 -19 14 -44 32 -54 42 -11 10 -27 18 -35 18 -26 0
-91 26 -112 44 -11 9 -22 16 -24 16 -10 0 -105 74 -105 82 0 4 -4 8 -10 8 -9
0 -38 21 -64 46 -54 54 -186 236 -186 257 0 5 -16 32 -36 59 -41 58 -113 194
-136 258 -28 77 -66 222 -74 280 -4 30 -8 57 -9 60 0 3 -3 10 -6 15 -12 20
-11 135 1 135 7 0 10 7 6 15 -3 8 0 14 6 12 23 -4 45 114 62 338 5 69 25 171
41 209 8 20 13 36 10 36 -3 0 -1 9 5 20 6 11 22 59 36 107 14 49 29 92 35 97
5 6 9 18 9 28 0 10 11 50 24 88 14 39 28 91 31 117 4 27 13 65 21 86 8 20 14
59 15 85 1 26 4 58 8 72 9 31 -18 143 -41 170 -19 21 -52 24 -118 10z"/>
<path d="M6000 9560 c0 -5 5 -10 10 -10 6 0 10 5 10 10 0 6 -4 10 -10 10 -5 0
-10 -4 -10 -10z"/>
<path d="M4520 9540 c0 -5 5 -10 10 -10 6 0 10 5 10 10 0 6 -4 10 -10 10 -5 0
-10 -4 -10 -10z"/>
<path d="M3800 9180 c0 -5 5 -10 10 -10 6 0 10 5 10 10 0 6 -4 10 -10 10 -5 0
-10 -4 -10 -10z"/>
<path d="M6120 7320 c0 -5 5 -10 10 -10 6 0 10 5 10 10 0 6 -4 10 -10 10 -5 0
-10 -4 -10 -10z"/>
<path d="M7300 7240 c0 -5 5 -10 10 -10 6 0 10 5 10 10 0 6 -4 10 -10 10 -5 0
-10 -4 -10 -10z"/>
<path d="M2220 7000 c0 -5 5 -10 10 -10 6 0 10 5 10 10 0 6 -4 10 -10 10 -5 0
-10 -4 -10 -10z"/>
<path d="M2340 6840 c0 -5 5 -10 10 -10 6 0 10 5 10 10 0 6 -4 10 -10 10 -5 0
-10 -4 -10 -10z"/>
<path d="M2440 6500 c0 -5 7 -10 16 -10 8 0 12 5 9 10 -3 6 -10 10 -16 10 -5
0 -9 -4 -9 -10z"/>
<path d="M7465 6120 c3 -5 8 -10 11 -10 2 0 4 5 4 10 0 6 -5 10 -11 10 -5 0
-7 -4 -4 -10z"/>
<path d="M7840 6098 c0 -4 4 -8 9 -8 6 0 12 4 15 8 3 5 -1 9 -9 9 -8 0 -15 -4
-15 -9z"/>
<path d="M7645 5980 c-3 -5 -1 -10 4 -10 6 0 11 5 11 10 0 6 -2 10 -4 10 -3 0
-8 -4 -11 -10z"/>
<path d="M7660 5068 c0 -19 2 -20 10 -8 13 19 13 30 0 30 -5 0 -10 -10 -10
-22z"/>
<path d="M7080 4680 c0 -5 5 -10 10 -10 6 0 10 5 10 10 0 6 -4 10 -10 10 -5 0
-10 -4 -10 -10z"/>
<path d="M7785 4600 c3 -5 8 -10 11 -10 2 0 4 5 4 10 0 6 -5 10 -11 10 -5 0
-7 -4 -4 -10z"/>
<path d="M7080 4470 c0 -11 5 -20 10 -20 6 0 10 9 10 20 0 11 -4 20 -10 20 -5
0 -10 -9 -10 -20z"/>
<path d="M3080 3940 c0 -5 5 -10 10 -10 6 0 10 5 10 10 0 6 -4 10 -10 10 -5 0
-10 -4 -10 -10z"/>
<path d="M6980 3840 c0 -5 5 -10 10 -10 6 0 10 5 10 10 0 6 -4 10 -10 10 -5 0
-10 -4 -10 -10z"/>
<path d="M3831 3064 c0 -11 3 -14 6 -6 3 7 2 16 -1 19 -3 4 -6 -2 -5 -13z"/>
<path d="M3963 2551 c0 -11 5 -17 9 -15 11 7 10 34 -1 34 -6 0 -9 -9 -8 -19z"/>
</g>
</svg>
